<svg width="652" height="111" viewBox="0 0 652 111" fill="none" xmlns="http://www.w3.org/2000/svg">
<path d="M68.0936 88H45.7908L38.572 71.8385L33.9391 64.2965H23.057V71.8385L24.1344 88H6.46458L7.54201 71.8385V22.8155L6.46458 7.19273H34.5855C44.1387 7.19273 51.2139 9.56308 55.8109 14.3038C60.4797 18.9726 62.8142 26.0837 62.8142 35.6369C62.8142 41.455 61.5931 46.5189 59.1509 50.8287C56.7806 55.1384 53.4765 58.4425 49.2386 60.741L56.1341 71.8385L68.0936 88ZM23.057 49.428H30.0603C36.1657 49.428 40.4395 48.4224 42.8817 46.4112C45.3957 44.4 46.6527 40.8086 46.6527 35.6369C46.6527 32.0455 46.1499 29.2801 45.1443 27.3407C44.1387 25.4013 42.4508 24.0366 40.0804 23.2464C37.7819 22.4563 34.5137 22.0613 30.2758 22.0613H23.057V49.428ZM72.1575 70.0069C72.1575 65.9127 73.1272 62.2135 75.0666 58.9094C77.0778 55.5334 79.6995 52.8758 82.9318 50.9364C86.2359 48.997 89.7915 48.0273 93.5984 48.0273C100.207 48.0273 105.342 48.997 109.006 50.9364V45.226C109.006 42.4965 107.892 40.3776 105.666 38.8692C103.511 37.3608 100.458 36.6066 96.5074 36.6066C92.2695 36.6066 88.4985 37.2889 85.1944 38.6537C81.9621 40.0184 79.484 42.0656 77.7602 44.795L76.575 44.5796L78.5144 28.6336C80.9565 26.4787 83.9733 24.8267 87.5648 23.6774C91.228 22.4563 94.9272 21.8458 98.6623 21.8458C106.42 21.8458 112.597 23.6774 117.194 27.3407C121.791 31.0039 124.09 35.996 124.09 42.317V71.9463L125.167 88H109.329L109.006 82.0741C107.569 84.3727 105.306 86.2402 102.218 87.6768C99.201 89.0415 95.861 89.7239 92.1977 89.7239C86.0923 89.7239 81.2079 87.9641 77.5447 84.4445C73.9532 80.9249 72.1575 76.1124 72.1575 70.0069ZM87.6725 69.0372C87.6725 71.4794 88.2831 73.3829 89.5041 74.7476C90.7971 76.0405 92.6646 76.687 95.1068 76.687C97.7644 76.687 100.278 76.1842 102.649 75.1786C105.091 74.1012 107.21 72.5927 109.006 70.6534V63.3268C104.983 61.3875 100.458 60.4178 95.43 60.4178C92.7723 60.4178 90.7971 61.1361 89.5041 62.5726C88.2831 64.0092 87.6725 66.1641 87.6725 69.0372ZM222.954 23.3542L217.567 38.9769L207.87 88H183.736L175.87 41.2395L168.005 88H143.871L134.281 38.9769L128.787 23.3542H147.749L156.046 77.5489L163.695 38.9769L166.173 23.3542H185.567L187.937 38.9769L195.695 77.6567L203.991 23.3542H222.954Z" fill="white"/>
<path d="M316.733 7.19273L311.454 23.3542L298.848 71.8385L295.616 88H271.805L268.572 71.8385L256.074 23.3542L250.795 7.19273H269.65L272.128 23.3542L284.303 69.8992L296.586 23.3542L299.064 7.19273H316.733ZM344.966 89.2929C335.34 89.2929 328.301 86.4557 323.848 80.7812C319.395 75.1068 317.168 66.7028 317.168 55.5693C317.168 44.7232 319.502 36.3552 324.171 30.4652C328.912 24.5753 335.843 21.6303 344.966 21.6303C353.944 21.6303 360.588 23.8929 364.898 28.4181C369.28 32.9433 371.829 40.0903 372.548 49.859L369.639 61.172H332.898C333.186 64.6916 333.868 67.3852 334.945 69.2527C336.023 71.1203 337.567 72.4132 339.578 73.1315C341.661 73.8497 344.535 74.2089 348.198 74.2089C353.01 74.2089 357.284 73.7779 361.019 72.916C364.826 72.054 367.412 70.9407 368.777 69.5759L370.608 70.5456L367.268 83.6903C364.539 85.7733 361.45 87.2099 358.002 88C354.555 88.8619 350.209 89.2929 344.966 89.2929ZM357.248 49.859C357.248 45.3338 356.279 41.9937 354.339 39.8389C352.4 37.6122 349.419 36.4988 345.396 36.4988C341.159 36.4988 338.07 37.5044 336.131 39.5156C334.263 41.455 333.15 44.9028 332.791 49.859H357.248ZM517.216 17.4283C514.487 17.4283 512.152 16.6741 510.213 15.1657C508.345 13.5855 507.412 11.5743 507.412 9.1321C507.412 6.6181 508.345 4.6069 510.213 3.0985C512.152 1.51826 514.487 0.728148 517.216 0.728148C519.946 0.728148 522.244 1.51826 524.112 3.0985C526.051 4.6069 527.021 6.6181 527.021 9.1321C527.021 11.5743 526.051 13.5855 524.112 15.1657C522.244 16.6741 519.946 17.4283 517.216 17.4283ZM509.567 71.8385V38.9769L508.489 23.3542H525.728L524.651 38.9769V71.8385L525.728 88H508.489L509.567 71.8385ZM563.608 89.2929C553.983 89.2929 546.944 86.4557 542.49 80.7812C538.037 75.1068 535.81 66.7028 535.81 55.5693C535.81 44.7232 538.145 36.3552 542.814 30.4652C547.554 24.5753 554.486 21.6303 563.608 21.6303C572.587 21.6303 579.231 23.8929 583.541 28.4181C587.922 32.9433 590.472 40.0903 591.19 49.859L588.281 61.172H551.541C551.828 64.6916 552.511 67.3852 553.588 69.2527C554.665 71.1203 556.21 72.4132 558.221 73.1315C560.304 73.8497 563.177 74.2089 566.84 74.2089C571.653 74.2089 575.927 73.7779 579.662 72.916C583.469 72.054 586.055 70.9407 587.419 69.5759L589.251 70.5456L585.911 83.6903C583.181 85.7733 580.093 87.2099 576.645 88C573.197 88.8619 568.852 89.2929 563.608 89.2929ZM575.891 49.859C575.891 45.3338 574.921 41.9937 572.982 39.8389C571.042 37.6122 568.061 36.4988 564.039 36.4988C559.801 36.4988 556.713 37.5044 554.773 39.5156C552.906 41.455 551.792 44.9028 551.433 49.859H575.891ZM622.655 89.0774C617.77 89.0774 613.748 88.431 610.587 87.1381C607.499 85.7733 604.374 83.4748 601.214 80.2425L599.167 66.6669L600.675 66.2359C603.405 68.6063 606.529 70.4738 610.049 71.8385C613.568 73.2033 617.088 73.8857 620.608 73.8857C624.127 73.8857 626.569 73.5624 627.934 72.916C629.371 72.1977 630.089 70.9766 630.089 69.2527C630.089 67.6725 629.191 66.3437 627.395 65.2662C625.671 64.1888 622.619 63.0036 618.237 61.7107C613.784 60.4178 610.3 58.9812 607.786 57.401C605.272 55.8207 603.44 53.8455 602.291 51.4751C601.142 49.0329 600.567 45.9802 600.567 42.317C600.567 35.7805 602.507 30.7525 606.385 27.2329C610.336 23.7133 615.903 21.9535 623.086 21.9535C627.467 21.9535 631.31 22.5282 634.614 23.6774C637.99 24.7548 641.007 26.4787 643.665 28.8491L641.294 42.4247L639.678 42.8557C638.529 40.9881 636.446 39.5156 633.429 38.4382C630.484 37.3608 627.503 36.8221 624.486 36.8221C618.884 36.8221 616.082 38.4023 616.082 41.5628C616.082 43.3585 616.837 44.7591 618.345 45.7647C619.925 46.7703 622.942 47.8837 627.395 49.1048C633.716 50.8287 638.313 53.2349 641.186 56.3236C644.131 59.3404 645.604 63.4346 645.604 68.6063C645.604 75.2145 643.593 80.2784 639.57 83.798C635.548 87.3176 629.909 89.0774 622.655 89.0774Z" fill="white"/>
<path d="M433.318 23.3542L432.241 39.4079V78.1954C432.241 88.8979 429.08 97.0145 422.759 102.545C416.51 108.076 407.855 110.842 396.793 110.842L390.005 99.2053L390.76 98.3433C395.5 98.3433 399.882 97.661 403.904 96.2962C407.927 95.0033 411.123 93.0998 413.493 90.5858C415.936 88.0718 417.157 85.1628 417.157 81.8586V80.6735C415.936 83.1875 413.889 85.1987 411.015 86.7071C408.142 88.1437 405.233 88.8619 402.288 88.8619C395.249 88.8619 389.754 85.9888 385.803 80.2425C381.853 74.4962 379.878 66.2718 379.878 55.5693C379.878 44.1486 381.745 35.7087 385.48 30.2497C389.287 24.7908 394.89 22.0613 402.288 22.0613C405.52 22.0613 408.501 22.4563 411.231 23.2464C414.032 23.9647 416.295 25.0062 418.019 26.371L418.557 23.3542H433.318ZM417.157 38.3305C414.786 37.3967 411.267 36.9298 406.598 36.9298C403.581 36.9298 401.283 37.4326 399.702 38.4382C398.122 39.4438 397.009 41.2754 396.362 43.9331C395.716 46.5189 395.393 50.3977 395.393 55.5693C395.393 60.5255 395.68 64.3324 396.255 66.9901C396.901 69.6478 397.943 71.5512 399.379 72.7005C400.816 73.7779 402.863 74.3166 405.52 74.3166C407.532 74.3166 409.651 74.0293 411.877 73.4547C414.176 72.8082 415.936 72.054 417.157 71.1921V38.3305ZM496.87 23.3542L495.792 39.4079V78.1954C495.792 88.8979 492.632 97.0145 486.311 102.545C480.062 108.076 471.406 110.842 460.345 110.842L453.557 99.2053L454.311 98.3433C459.052 98.3433 463.433 97.661 467.456 96.2962C471.478 95.0033 474.675 93.0998 477.045 90.5858C479.487 88.0718 480.708 85.1628 480.708 81.8586V80.6735C479.487 83.1875 477.44 85.1987 474.567 86.7071C471.694 88.1437 468.785 88.8619 465.84 88.8619C458.801 88.8619 453.306 85.9888 449.355 80.2425C445.404 74.4962 443.429 66.2718 443.429 55.5693C443.429 44.1486 445.297 35.7087 449.032 30.2497C452.839 24.7908 458.441 22.0613 465.84 22.0613C469.072 22.0613 472.053 22.4563 474.782 23.2464C477.584 23.9647 479.846 25.0062 481.57 26.371L482.109 23.3542H496.87ZM480.708 38.3305C478.338 37.3967 474.818 36.9298 470.149 36.9298C467.133 36.9298 464.834 37.4326 463.254 38.4382C461.674 39.4438 460.56 41.2754 459.914 43.9331C459.267 46.5189 458.944 50.3977 458.944 55.5693C458.944 60.5255 459.231 64.3324 459.806 66.9901C460.453 69.6478 461.494 71.5512 462.931 72.7005C464.367 73.7779 466.414 74.3166 469.072 74.3166C471.083 74.3166 473.202 74.0293 475.429 73.4547C477.727 72.8082 479.487 72.054 480.708 71.1921V38.3305Z" fill="#96E072"/>
</svg>
