<svg width="116" height="68" viewBox="0 0 116 68" fill="none" xmlns="http://www.w3.org/2000/svg">
<path d="M2.20812 33V10.857H11.6737C12.8575 10.857 13.9178 11.0372 14.8546 11.3975C15.8017 11.7475 16.5686 12.2313 17.1554 12.849C17.7525 13.4666 18.2054 14.1718 18.5142 14.9645C18.8231 15.7468 18.9775 16.5807 18.9775 17.466C18.9775 18.8145 18.6017 20.055 17.8502 21.1873C17.0988 22.3197 16.0951 23.1381 14.8392 23.6425L20.1201 33H15.2715L10.7163 24.6771H6.33097V33H2.20812ZM6.33097 20.7241H11.4421C12.4097 20.7241 13.1972 20.4461 13.8046 19.8903C14.4223 19.3344 14.7311 18.6138 14.7311 17.7285C14.7311 16.8535 14.4326 16.1483 13.8355 15.613C13.2487 15.0777 12.4715 14.81 11.5038 14.81H6.33097V20.7241ZM28.1188 33.1853H28.0261C26.1114 33.1853 24.5775 32.6243 23.4246 31.5022C22.2716 30.3801 21.6952 28.9595 21.6952 27.2404C21.6952 25.7683 22.1069 24.6153 22.9305 23.7815C23.7643 22.9477 24.9584 22.5307 26.5129 22.5307H29.0144C30.4967 22.5307 31.7269 22.7006 32.7049 23.0403V22.0521C32.7049 20.4153 31.5674 19.5969 29.2923 19.5969C28.2629 19.5969 27.4085 19.7616 26.729 20.091C26.0599 20.4101 25.5143 20.9197 25.0923 21.6197L22.143 19.7513C22.7091 18.4851 23.6408 17.5174 24.9378 16.8483C26.2349 16.1689 27.7791 15.8292 29.5703 15.8292C31.8659 15.8292 33.6262 16.3593 34.8512 17.4196C36.0762 18.4799 36.6887 20.0344 36.6887 22.0829V33H32.7975V31.0081C32.3446 31.6978 31.7063 32.2331 30.8828 32.614C30.0695 32.9949 29.1482 33.1853 28.1188 33.1853ZM25.6482 27.1168C25.6482 27.8683 25.9827 28.4911 26.6518 28.9852C27.321 29.4691 28.093 29.711 28.9681 29.711H29.0761C30.2085 29.711 31.0938 29.4794 31.7321 29.0161C32.3806 28.5529 32.7049 27.9198 32.7049 27.1168C32.7049 26.3345 32.2828 25.9433 31.4387 25.9433H26.9452C26.0805 25.9433 25.6482 26.3345 25.6482 27.1168ZM43.205 33L38.2638 16.1071H42.5102L45.9227 28.0279L48.9492 16.1071H54.1684L57.1795 28.0279L60.592 16.1071H64.8693L59.8972 33H54.5544L51.5434 21.419L48.5786 33H43.205Z" fill="white"/>
<path d="M8.21482 56.2468L0.478683 34.1039H4.86404L10.8399 51.8151L16.8311 34.1039H21.2165L13.4649 56.2468H8.21482ZM29.2923 56.4321C26.7702 56.4321 24.7886 55.6549 23.3474 54.1005C21.9165 52.5357 21.201 50.4666 21.201 47.893C21.201 45.2268 21.9422 43.0908 23.4246 41.4849C24.9173 39.879 26.9298 39.076 29.4622 39.076C31.9328 39.076 33.7961 39.8429 35.052 41.3768C36.2976 42.9312 36.9204 44.9283 36.9204 47.368C36.9204 47.9651 36.8792 48.6136 36.7968 49.3136H28.9217C27.5423 49.3136 26.3276 49.1901 25.2776 48.943C25.3393 50.1578 25.7202 51.0997 26.4202 51.7688C27.1202 52.4379 28.1136 52.7725 29.4004 52.7725C30.3475 52.7725 31.1093 52.6027 31.6857 52.2629C32.2725 51.9232 32.6071 51.46 32.6894 50.8732H36.6424C36.5807 52.4791 35.8549 53.8071 34.4652 54.8571C33.0755 55.9071 31.3512 56.4321 29.2923 56.4321ZM25.2776 45.7467C26.1937 46.0246 27.4085 46.1636 28.9217 46.1636H32.8438C32.8438 45.1033 32.5247 44.2643 31.8865 43.6467C31.2482 43.0187 30.3732 42.7047 29.2614 42.7047C28.2114 42.7047 27.3313 42.9775 26.621 43.5231C25.9209 44.0687 25.4731 44.8099 25.2776 45.7467ZM76.4812 56.2468V39.3539H80.4651V56.2468H76.4812ZM76.3886 37.2385V32.9458H80.5577V37.2385H76.3886ZM91.3049 56.4321C88.7829 56.4321 86.8012 55.6549 85.36 54.1005C83.9291 52.5357 83.2137 50.4666 83.2137 47.893C83.2137 45.2268 83.9548 43.0908 85.4372 41.4849C86.9299 39.879 88.9424 39.076 91.4748 39.076C93.9454 39.076 95.8087 39.8429 97.0646 41.3768C98.3102 42.9312 98.933 44.9283 98.933 47.368C98.933 47.9651 98.8918 48.6136 98.8095 49.3136H90.9344C89.5549 49.3136 88.3402 49.1901 87.2902 48.943C87.352 50.1578 87.7328 51.0997 88.4328 51.7688C89.1329 52.4379 90.1263 52.7725 91.413 52.7725C92.3601 52.7725 93.1219 52.6027 93.6984 52.2629C94.2851 51.9232 94.6197 51.46 94.7021 50.8732H98.6551C98.5933 52.4791 97.8675 53.8071 96.4778 54.8571C95.0881 55.9071 93.3638 56.4321 91.3049 56.4321ZM87.2902 45.7467C88.2064 46.0246 89.4211 46.1636 90.9344 46.1636H94.8565C94.8565 45.1033 94.5373 44.2643 93.8991 43.6467C93.2609 43.0187 92.3858 42.7047 91.2741 42.7047C90.2241 42.7047 89.3439 42.9775 88.6336 43.5231C87.9336 44.0687 87.4858 44.8099 87.2902 45.7467ZM107.596 56.4321C105.557 56.4321 103.859 55.9431 102.5 54.9652C101.151 53.9872 100.477 52.6232 100.477 50.8732C100.477 50.8218 100.498 50.5387 100.539 50.0239H104.523C104.512 50.0857 104.502 50.1578 104.492 50.2401C104.482 50.3122 104.471 50.3688 104.461 50.41C104.461 50.4512 104.461 50.4872 104.461 50.5181C104.461 51.249 104.78 51.8203 105.418 52.2321C106.067 52.6335 106.906 52.8343 107.935 52.8343C108.769 52.8343 109.397 52.7005 109.819 52.4328C110.252 52.1549 110.468 51.7688 110.468 51.2747C110.468 50.8115 110.277 50.4512 109.896 50.1938C109.526 49.9261 108.949 49.7203 108.167 49.5761L106.36 49.221C104.672 48.8916 103.396 48.3614 102.531 47.6305C101.666 46.8893 101.234 45.7776 101.234 44.2952C101.234 42.5966 101.815 41.3047 102.979 40.4194C104.142 39.5238 105.681 39.076 107.596 39.076C110.396 39.076 112.449 40.1415 113.757 42.2724L110.437 44.3261C109.891 43.2246 108.903 42.6738 107.472 42.6738C106.782 42.6738 106.247 42.8025 105.866 43.0599C105.496 43.3172 105.31 43.6878 105.31 44.1717C105.31 44.6967 105.516 45.0724 105.928 45.2989C106.34 45.5151 107.065 45.7364 108.105 45.9629L110.035 46.3489C111.549 46.6474 112.691 47.1364 113.463 47.8158C114.235 48.485 114.621 49.5041 114.621 50.8732C114.621 52.7262 113.947 54.1056 112.599 55.0115C111.229 55.9586 109.562 56.4321 107.596 56.4321Z" fill="#96E072"/>
<path d="M46.8801 63.5506H46.7257C44.08 63.5506 42.0469 63.0513 40.6263 62.0528C39.2057 61.0645 38.4954 59.752 38.4954 58.1152C38.4954 57.2196 38.7167 56.4836 39.1594 55.9071C39.6123 55.3203 40.2454 54.9292 41.0587 54.7336C40.5131 54.4659 40.0961 54.085 39.8079 53.5909C39.53 53.0968 39.391 52.5357 39.391 51.9078C39.391 50.4666 40.0447 49.4269 41.352 48.7886C40.5903 47.8107 40.2094 46.596 40.2094 45.1445C40.2094 43.2915 40.8425 41.8194 42.1087 40.7282C43.3852 39.6267 45.0168 39.076 47.0036 39.076C48.5066 39.076 49.8242 39.39 50.9566 40.0179C51.9654 39.7709 52.4698 38.8753 52.4698 37.3311H56.4228C56.392 39.987 55.3522 41.7371 53.3037 42.5812C53.6537 43.2709 53.8287 44.1047 53.8287 45.0827C53.8287 46.9665 53.1904 48.4541 51.914 49.5453C50.6478 50.6365 49.011 51.182 47.0036 51.182C45.7992 51.182 44.7028 50.971 43.7146 50.549C43.066 50.8166 42.7418 51.2798 42.7418 51.9387C42.7418 52.3299 42.8653 52.6438 43.1124 52.8806C43.3697 53.1174 43.7197 53.2358 44.1624 53.2358H50.4779C52.2176 53.2358 53.5507 53.6269 54.4772 54.4093C55.4037 55.1814 55.867 56.2674 55.867 57.6674C55.867 59.4998 55.064 60.9359 53.4581 61.9756C51.8625 63.0256 49.6698 63.5506 46.8801 63.5506ZM42.3866 57.9608C42.3866 58.702 42.7727 59.2682 43.5447 59.6594C44.3168 60.0608 45.4492 60.2616 46.9418 60.2616H47.0345C48.6095 60.2616 49.8345 60.0557 50.7095 59.6439C51.5948 59.2425 52.0375 58.6711 52.0375 57.9299C52.0375 57.5491 51.9191 57.2402 51.6823 57.0035C51.4559 56.777 51.1522 56.6637 50.7713 56.6637H43.6528C43.2616 56.6637 42.9528 56.7821 42.7263 57.0189C42.4999 57.2557 42.3866 57.5696 42.3866 57.9608ZM44.919 43.168C44.4146 43.6621 44.1624 44.3209 44.1624 45.1445C44.1624 45.968 44.4146 46.6217 44.919 47.1055C45.4234 47.5894 46.1183 47.8313 47.0036 47.8313C47.8992 47.8313 48.5992 47.5894 49.1036 47.1055C49.6183 46.6217 49.8757 45.968 49.8757 45.1445C49.8757 44.3003 49.6183 43.6364 49.1036 43.1525C48.5992 42.6687 47.8992 42.4268 47.0036 42.4268C46.1183 42.4268 45.4234 42.6738 44.919 43.168ZM65.2862 63.5506H65.1318C62.4862 63.5506 60.453 63.0513 59.0324 62.0528C57.6118 61.0645 56.9015 59.752 56.9015 58.1152C56.9015 57.2196 57.1229 56.4836 57.5655 55.9071C58.0185 55.3203 58.6516 54.9292 59.4648 54.7336C58.9192 54.4659 58.5023 54.085 58.214 53.5909C57.9361 53.0968 57.7971 52.5357 57.7971 51.9078C57.7971 50.4666 58.4508 49.4269 59.7582 48.7886C58.9964 47.8107 58.6155 46.596 58.6155 45.1445C58.6155 43.2915 59.2486 41.8194 60.5148 40.7282C61.7913 39.6267 63.4229 39.076 65.4097 39.076C66.9127 39.076 68.2304 39.39 69.3627 40.0179C70.3716 39.7709 70.876 38.8753 70.876 37.3311H74.829C74.7981 39.987 73.7584 41.7371 71.7098 42.5812C72.0598 43.2709 72.2348 44.1047 72.2348 45.0827C72.2348 46.9665 71.5966 48.4541 70.3201 49.5453C69.0539 50.6365 67.4171 51.182 65.4097 51.182C64.2053 51.182 63.109 50.971 62.1207 50.549C61.4722 50.8166 61.1479 51.2798 61.1479 51.9387C61.1479 52.3299 61.2714 52.6438 61.5185 52.8806C61.7759 53.1174 62.1259 53.2358 62.5685 53.2358H68.884C70.6238 53.2358 71.9569 53.6269 72.8834 54.4093C73.8099 55.1814 74.2731 56.2674 74.2731 57.6674C74.2731 59.4998 73.4701 60.9359 71.8642 61.9756C70.2686 63.0256 68.0759 63.5506 65.2862 63.5506ZM60.7928 57.9608C60.7928 58.702 61.1788 59.2682 61.9509 59.6594C62.7229 60.0608 63.8553 60.2616 65.348 60.2616H65.4406C67.0156 60.2616 68.2407 60.0557 69.1157 59.6439C70.001 59.2425 70.4436 58.6711 70.4436 57.9299C70.4436 57.5491 70.3252 57.2402 70.0885 57.0035C69.862 56.777 69.5583 56.6637 69.1774 56.6637H62.059C61.6678 56.6637 61.3589 56.7821 61.1325 57.0189C60.906 57.2557 60.7928 57.5696 60.7928 57.9608ZM63.3251 43.168C62.8207 43.6621 62.5685 44.3209 62.5685 45.1445C62.5685 45.968 62.8207 46.6217 63.3251 47.1055C63.8296 47.5894 64.5244 47.8313 65.4097 47.8313C66.3053 47.8313 67.0053 47.5894 67.5098 47.1055C68.0245 46.6217 68.2818 45.968 68.2818 45.1445C68.2818 44.3003 68.0245 43.6364 67.5098 43.1525C67.0053 42.6687 66.3053 42.4268 65.4097 42.4268C64.5244 42.4268 63.8296 42.6738 63.3251 43.168Z" fill="#E8FCCF"/>
</svg>
