<svg width="56" height="56" viewBox="0 0 56 56" fill="none" xmlns="http://www.w3.org/2000/svg">
<g opacity="0.8">
<path d="M49.2747 17.6101H6.727C5.03563 17.6101 3.6645 18.9812 3.6645 20.6726V49.4391C3.6645 51.1305 5.03563 52.5016 6.727 52.5016H49.2747C50.9661 52.5016 52.3372 51.1305 52.3372 49.4391V20.6726C52.3372 18.9812 50.9661 17.6101 49.2747 17.6101Z" fill="url(#paint0_linear_1_163)"/>
<path d="M49.2747 17.6101H6.727C5.03563 17.6101 3.6645 18.9812 3.6645 20.6726V49.4391C3.6645 51.1305 5.03563 52.5016 6.727 52.5016H49.2747C50.9661 52.5016 52.3372 51.1305 52.3372 49.4391V20.6726C52.3372 18.9812 50.9661 17.6101 49.2747 17.6101Z" fill="url(#paint1_linear_1_163)"/>
<path d="M28 17.6101V52.4999H6.727C5.91477 52.4999 5.13581 52.1772 4.56148 51.6029C3.98715 51.0286 3.6645 50.2496 3.6645 49.4374V20.6709C3.6645 18.9804 5.03475 17.6084 6.727 17.6084L28 17.6101Z" fill="url(#paint2_linear_1_163)"/>
<path d="M28 17.6101V52.4999H6.727C5.91477 52.4999 5.13581 52.1772 4.56148 51.6029C3.98715 51.0286 3.6645 50.2496 3.6645 49.4374V20.6709C3.6645 18.9804 5.03475 17.6084 6.727 17.6084L28 17.6101Z" fill="url(#paint3_radial_1_163)"/>
<path d="M28 17.6101V52.4999H49.273C50.0852 52.4999 50.8642 52.1772 51.4385 51.6029C52.0128 51.0286 52.3355 50.2496 52.3355 49.4374V20.6709C52.3355 19.8587 52.0128 19.0797 51.4385 18.5054C50.8642 17.9311 50.0852 17.6084 49.273 17.6084L28 17.6101Z" fill="url(#paint4_linear_1_163)"/>
<path d="M28 17.6101V52.4999H49.273C50.0852 52.4999 50.8642 52.1772 51.4385 51.6029C52.0128 51.0286 52.3355 50.2496 52.3355 49.4374V20.6709C52.3355 19.8587 52.0128 19.0797 51.4385 18.5054C50.8642 17.9311 50.0852 17.6084 49.273 17.6084L28 17.6101Z" fill="url(#paint5_linear_1_163)"/>
<path d="M28 17.6101V52.4999H49.273C50.0852 52.4999 50.8642 52.1772 51.4385 51.6029C52.0128 51.0286 52.3355 50.2496 52.3355 49.4374V20.6709C52.3355 19.8587 52.0128 19.0797 51.4385 18.5054C50.8642 17.9311 50.0852 17.6084 49.273 17.6084L28 17.6101Z" fill="url(#paint6_linear_1_163)"/>
<path d="M28 17.6101V52.4999H49.273C50.0852 52.4999 50.8642 52.1772 51.4385 51.6029C52.0128 51.0286 52.3355 50.2496 52.3355 49.4374V20.6709C52.3355 19.8587 52.0128 19.0797 51.4385 18.5054C50.8642 17.9311 50.0852 17.6084 49.273 17.6084L28 17.6101Z" fill="url(#paint7_linear_1_163)"/>
<g filter="url(#filter0_i_1_163)">
<path d="M3.6645 49.4375C3.66449 49.2116 3.72201 48.9895 3.83162 48.792C3.94123 48.5945 4.09932 48.4282 4.291 48.3087L27.615 33.7277C27.7263 33.6582 27.8548 33.6213 27.986 33.6213C28.1172 33.6213 28.2457 33.6582 28.357 33.7277L51.7598 48.3962C52.1185 48.622 52.3372 49.014 52.3372 49.4375C52.3372 50.2497 52.0146 51.0287 51.4403 51.603C50.8659 52.1773 50.087 52.5 49.2747 52.5H6.72525C5.91302 52.5 5.13407 52.1773 4.55974 51.603C3.98541 51.0287 3.66275 50.2497 3.66275 49.4375H3.6645Z" fill="url(#paint8_linear_1_163)"/>
</g>
<path d="M3.6645 49.4375C3.66449 49.2116 3.72201 48.9895 3.83162 48.792C3.94123 48.5945 4.09932 48.4282 4.291 48.3087L27.615 33.7277C27.7263 33.6582 27.8548 33.6213 27.986 33.6213C28.1172 33.6213 28.2457 33.6582 28.357 33.7277L51.7598 48.3962C52.1185 48.622 52.3372 49.014 52.3372 49.4375C52.3372 50.2497 52.0146 51.0287 51.4403 51.603C50.8659 52.1773 50.087 52.5 49.2747 52.5H6.72525C5.91302 52.5 5.13407 52.1773 4.55974 51.603C3.98541 51.0287 3.66275 50.2497 3.66275 49.4375H3.6645Z" fill="url(#paint9_linear_1_163)"/>
<path d="M3.6645 49.4375C3.66449 49.2116 3.72201 48.9895 3.83162 48.792C3.94123 48.5945 4.09932 48.4282 4.291 48.3087L27.615 33.7277C27.7263 33.6582 27.8548 33.6213 27.986 33.6213C28.1172 33.6213 28.2457 33.6582 28.357 33.7277L51.7598 48.3962C52.1185 48.622 52.3372 49.014 52.3372 49.4375C52.3372 50.2497 52.0146 51.0287 51.4403 51.603C50.8659 52.1773 50.087 52.5 49.2747 52.5H6.72525C5.91302 52.5 5.13407 52.1773 4.55974 51.603C3.98541 51.0287 3.66275 50.2497 3.66275 49.4375H3.6645Z" fill="url(#paint10_linear_1_163)"/>
<g filter="url(#filter1_ii_1_163)">
<path d="M3.6645 20.6726C3.66449 20.8985 3.72201 21.1207 3.83162 21.3181C3.94123 21.5156 4.09932 21.6819 4.291 21.8014L27.615 36.3806C27.7263 36.4502 27.8548 36.487 27.986 36.487C28.1172 36.487 28.2457 36.4502 28.357 36.3806L51.7598 21.7121C51.9364 21.6018 52.0821 21.4483 52.1831 21.2662C52.2841 21.084 52.3372 20.8792 52.3372 20.6709C52.3372 19.8587 52.0146 19.0797 51.4403 18.5054C50.8659 17.9311 50.087 17.6084 49.2747 17.6084H6.72525C5.91302 17.6084 5.13407 17.9311 4.55974 18.5054C3.98541 19.0797 3.66275 19.8587 3.66275 20.6709L3.6645 20.6726Z" fill="url(#paint11_linear_1_163)"/>
<path d="M3.6645 20.6726C3.66449 20.8985 3.72201 21.1207 3.83162 21.3181C3.94123 21.5156 4.09932 21.6819 4.291 21.8014L27.615 36.3806C27.7263 36.4502 27.8548 36.487 27.986 36.487C28.1172 36.487 28.2457 36.4502 28.357 36.3806L51.7598 21.7121C51.9364 21.6018 52.0821 21.4483 52.1831 21.2662C52.2841 21.084 52.3372 20.8792 52.3372 20.6709C52.3372 19.8587 52.0146 19.0797 51.4403 18.5054C50.8659 17.9311 50.087 17.6084 49.2747 17.6084H6.72525C5.91302 17.6084 5.13407 17.9311 4.55974 18.5054C3.98541 19.0797 3.66275 19.8587 3.66275 20.6709L3.6645 20.6726Z" fill="url(#paint12_linear_1_163)"/>
<path d="M3.6645 20.6726C3.66449 20.8985 3.72201 21.1207 3.83162 21.3181C3.94123 21.5156 4.09932 21.6819 4.291 21.8014L27.615 36.3806C27.7263 36.4502 27.8548 36.487 27.986 36.487C28.1172 36.487 28.2457 36.4502 28.357 36.3806L51.7598 21.7121C51.9364 21.6018 52.0821 21.4483 52.1831 21.2662C52.2841 21.084 52.3372 20.8792 52.3372 20.6709C52.3372 19.8587 52.0146 19.0797 51.4403 18.5054C50.8659 17.9311 50.087 17.6084 49.2747 17.6084H6.72525C5.91302 17.6084 5.13407 17.9311 4.55974 18.5054C3.98541 19.0797 3.66275 19.8587 3.66275 20.6709L3.6645 20.6726Z" fill="url(#paint13_linear_1_163)"/>
<path d="M3.6645 20.6726C3.66449 20.8985 3.72201 21.1207 3.83162 21.3181C3.94123 21.5156 4.09932 21.6819 4.291 21.8014L27.615 36.3806C27.7263 36.4502 27.8548 36.487 27.986 36.487C28.1172 36.487 28.2457 36.4502 28.357 36.3806L51.7598 21.7121C51.9364 21.6018 52.0821 21.4483 52.1831 21.2662C52.2841 21.084 52.3372 20.8792 52.3372 20.6709C52.3372 19.8587 52.0146 19.0797 51.4403 18.5054C50.8659 17.9311 50.087 17.6084 49.2747 17.6084H6.72525C5.91302 17.6084 5.13407 17.9311 4.55974 18.5054C3.98541 19.0797 3.66275 19.8587 3.66275 20.6709L3.6645 20.6726Z" fill="url(#paint14_radial_1_163)"/>
</g>
</g>
<defs>
<filter id="filter0_i_1_163" x="3.66275" y="32.8713" width="48.6745" height="19.6287" filterUnits="userSpaceOnUse" color-interpolation-filters="sRGB">
<feFlood flood-opacity="0" result="BackgroundImageFix"/>
<feBlend mode="normal" in="SourceGraphic" in2="BackgroundImageFix" result="shape"/>
<feColorMatrix in="SourceAlpha" type="matrix" values="0 0 0 0 0 0 0 0 0 0 0 0 0 0 0 0 0 0 127 0" result="hardAlpha"/>
<feOffset dy="-0.75"/>
<feGaussianBlur stdDeviation="0.75"/>
<feComposite in2="hardAlpha" operator="arithmetic" k2="-1" k3="1"/>
<feColorMatrix type="matrix" values="0 0 0 0 0.819608 0 0 0 0 0.654902 0 0 0 0 0.933333 0 0 0 1 0"/>
<feBlend mode="normal" in2="shape" result="effect1_innerShadow_1_163"/>
</filter>
<filter id="filter1_ii_1_163" x="3.66275" y="17.4584" width="48.6745" height="19.2787" filterUnits="userSpaceOnUse" color-interpolation-filters="sRGB">
<feFlood flood-opacity="0" result="BackgroundImageFix"/>
<feBlend mode="normal" in="SourceGraphic" in2="BackgroundImageFix" result="shape"/>
<feColorMatrix in="SourceAlpha" type="matrix" values="0 0 0 0 0 0 0 0 0 0 0 0 0 0 0 0 0 0 127 0" result="hardAlpha"/>
<feOffset dy="-0.15"/>
<feGaussianBlur stdDeviation="0.225"/>
<feComposite in2="hardAlpha" operator="arithmetic" k2="-1" k3="1"/>
<feColorMatrix type="matrix" values="0 0 0 0 0.827451 0 0 0 0 0.686275 0 0 0 0 0.913725 0 0 0 1 0"/>
<feBlend mode="normal" in2="shape" result="effect1_innerShadow_1_163"/>
<feColorMatrix in="SourceAlpha" type="matrix" values="0 0 0 0 0 0 0 0 0 0 0 0 0 0 0 0 0 0 127 0" result="hardAlpha"/>
<feOffset dy="0.25"/>
<feGaussianBlur stdDeviation="0.3"/>
<feComposite in2="hardAlpha" operator="arithmetic" k2="-1" k3="1"/>
<feColorMatrix type="matrix" values="0 0 0 0 0.870588 0 0 0 0 0.858824 0 0 0 0 0.854902 0 0 0 1 0"/>
<feBlend mode="normal" in2="effect1_innerShadow_1_163" result="effect2_innerShadow_1_163"/>
</filter>
<linearGradient id="paint0_linear_1_163" x1="7.1645" y1="37.0789" x2="52.3355" y2="36.7499" gradientUnits="userSpaceOnUse">
<stop stop-color="#DFD0E6"/>
<stop offset="1" stop-color="#EEE5F8"/>
</linearGradient>
<linearGradient id="paint1_linear_1_163" x1="3.6645" y1="36.9704" x2="8.981" y2="36.9704" gradientUnits="userSpaceOnUse">
<stop stop-color="#D6BABD"/>
<stop offset="1" stop-color="#DCC9DD" stop-opacity="0"/>
</linearGradient>
<linearGradient id="paint2_linear_1_163" x1="18.9647" y1="40.2569" x2="17.6312" y2="38.1796" gradientUnits="userSpaceOnUse">
<stop offset="0.114" stop-color="#DAC3DF"/>
<stop offset="1" stop-color="#DAC3DF" stop-opacity="0"/>
</linearGradient>
<radialGradient id="paint3_radial_1_163" cx="0" cy="0" r="1" gradientUnits="userSpaceOnUse" gradientTransform="translate(21.2174 30.4697) rotate(123.69) scale(4.76915 33.4941)">
<stop offset="0.342" stop-color="#C8A6D7"/>
<stop offset="1" stop-color="#D1BBDD" stop-opacity="0"/>
</radialGradient>
<linearGradient id="paint4_linear_1_163" x1="36.9145" y1="40.7976" x2="38.367" y2="38.1796" gradientUnits="userSpaceOnUse">
<stop offset="0.114" stop-color="#F6EFFE"/>
<stop offset="1" stop-color="#F3EAFD" stop-opacity="0"/>
</linearGradient>
<linearGradient id="paint5_linear_1_163" x1="35.273" y1="31.4456" x2="37.1333" y2="33.9604" gradientUnits="userSpaceOnUse">
<stop stop-color="#E3CDF7"/>
<stop offset="1" stop-color="#E9D9F8" stop-opacity="0"/>
</linearGradient>
<linearGradient id="paint6_linear_1_163" x1="52.6645" y1="41.2894" x2="46.1563" y2="41.2894" gradientUnits="userSpaceOnUse">
<stop stop-color="#F7F3FB"/>
<stop offset="1" stop-color="#F0E9F8" stop-opacity="0"/>
</linearGradient>
<linearGradient id="paint7_linear_1_163" x1="52.6645" y1="41.2894" x2="50.519" y2="41.2894" gradientUnits="userSpaceOnUse">
<stop offset="0.199" stop-color="#EBE9ED"/>
<stop offset="1" stop-color="#EBE9ED" stop-opacity="0"/>
</linearGradient>
<linearGradient id="paint8_linear_1_163" x1="28" y1="55.5625" x2="28" y2="36.6415" gradientUnits="userSpaceOnUse">
<stop stop-color="#DDC5F1"/>
<stop offset="1" stop-color="#E6DAF1"/>
</linearGradient>
<linearGradient id="paint9_linear_1_163" x1="13.1005" y1="42.2415" x2="13.8985" y2="43.4385" gradientUnits="userSpaceOnUse">
<stop offset="0.073" stop-color="#DDC2C8"/>
<stop offset="1" stop-color="#DFCDDA" stop-opacity="0"/>
</linearGradient>
<linearGradient id="paint10_linear_1_163" x1="39.5168" y1="40.5825" x2="39.0145" y2="41.3647" gradientUnits="userSpaceOnUse">
<stop offset="0.14" stop-color="#F8F3FD"/>
<stop offset="1" stop-color="#F1EAF9" stop-opacity="0"/>
</linearGradient>
<linearGradient id="paint11_linear_1_163" x1="28" y1="17.6101" x2="28" y2="36.4874" gradientUnits="userSpaceOnUse">
<stop stop-color="#E9E4E9"/>
<stop offset="1" stop-color="#E7DCF0"/>
</linearGradient>
<linearGradient id="paint12_linear_1_163" x1="17.1675" y1="29.5906" x2="23.492" y2="18.2419" gradientUnits="userSpaceOnUse">
<stop stop-color="#E1D5E7"/>
<stop offset="1" stop-color="#E1D5E7" stop-opacity="0"/>
</linearGradient>
<linearGradient id="paint13_linear_1_163" x1="3.6645" y1="20.4749" x2="8.7955" y2="20.4749" gradientUnits="userSpaceOnUse">
<stop stop-color="#E1C1BC"/>
<stop offset="1" stop-color="#E9D1CD" stop-opacity="0"/>
</linearGradient>
<radialGradient id="paint14_radial_1_163" cx="0" cy="0" r="1" gradientUnits="userSpaceOnUse" gradientTransform="translate(48.0496 24.7549) rotate(-138.233) scale(10.7259 47.5263)">
<stop stop-color="#FBF9FE"/>
<stop offset="1" stop-color="#F0ECF1" stop-opacity="0"/>
</radialGradient>
</defs>
</svg>
