<svg width="49" height="48" viewBox="0 0 49 48" fill="none" xmlns="http://www.w3.org/2000/svg">
<path d="M18.9785 10.5H7.72852C6.93287 10.5 6.1698 10.8161 5.6072 11.3787C5.04459 11.9413 4.72852 12.7044 4.72852 13.5V25.5C4.72852 26.2956 5.04459 27.0587 5.6072 27.6213C6.1698 28.1839 6.93287 28.5 7.72852 28.5H18.9785V30C18.9785 31.5913 18.3464 33.1174 17.2212 34.2426C16.0959 35.3679 14.5698 36 12.9785 36C12.5807 36 12.1992 36.158 11.9179 36.4393C11.6366 36.7206 11.4785 37.1022 11.4785 37.5C11.4785 37.8978 11.6366 38.2794 11.9179 38.5607C12.1992 38.842 12.5807 39 12.9785 39C15.3647 38.9975 17.6524 38.0485 19.3397 36.3612C21.027 34.6739 21.976 32.3862 21.9785 30V13.5C21.9785 12.7044 21.6624 11.9413 21.0998 11.3787C20.5372 10.8161 19.7742 10.5 18.9785 10.5ZM18.9785 25.5H7.72852V13.5H18.9785V25.5ZM40.7285 10.5H29.4785C28.6829 10.5 27.9198 10.8161 27.3572 11.3787C26.7946 11.9413 26.4785 12.7044 26.4785 13.5V25.5C26.4785 26.2956 26.7946 27.0587 27.3572 27.6213C27.9198 28.1839 28.6829 28.5 29.4785 28.5H40.7285V30C40.7285 31.5913 40.0964 33.1174 38.9712 34.2426C37.8459 35.3679 36.3198 36 34.7285 36C34.3307 36 33.9492 36.158 33.6679 36.4393C33.3865 36.7206 33.2285 37.1022 33.2285 37.5C33.2285 37.8978 33.3865 38.2794 33.6679 38.5607C33.9492 38.842 34.3307 39 34.7285 39C37.1147 38.9975 39.4024 38.0485 41.0897 36.3612C42.777 34.6739 43.726 32.3862 43.7285 30V13.5C43.7285 12.7044 43.4124 11.9413 42.8498 11.3787C42.2872 10.8161 41.5242 10.5 40.7285 10.5ZM40.7285 25.5H29.4785V13.5H40.7285V25.5Z" fill="black"/>
</svg>
